<?xml version="1.0" encoding="utf-8"?>
<!-- Generator: Adobe Illustrator 24.3.0, SVG Export Plug-In . SVG Version: 6.00 Build 0)  -->
<svg version="1.1" id="Layer_1" xmlns="http://www.w3.org/2000/svg" xmlns:xlink="http://www.w3.org/1999/xlink" x="0px" y="0px"
	 viewBox="0 0 512 512" style="enable-background:new 0 0 512 512;" xml:space="preserve">
<style type="text/css">
	.st0{fill:#FD8317;}
</style>
<g id="XMLID_1_">
	<polygon id="XMLID_3_" class="st0" points="0,318.28 214.48,85.99 354.47,85.99 137.61,318.28 	"/>
	<polygon id="XMLID_4_" class="st0" points="364.01,155.98 296.12,155.98 296.12,245.48 364.01,245.48 364.01,318.84 444.25,318.84 
		444.25,245.48 512,245.48 512,155.98 444.25,155.98 444.25,85.43 364.01,85.43 	"/>
	<path id="XMLID_12_" class="st0" d="M207.18,305.66v18.94l19.5-0.28v-18.66H207.18z M248,336.24v90.34h20.06v-73.36h26.51v73.36
		h20.9v-73.36h17.39c10.1,1.82,11.36,8.7,11.78,13.89v59.48h20.48V357c-3.23-11.78-13.05-17.81-20.48-20.9H248V336.24z
		 M406.51,336.24c-27.91,6.17-29.6,36.75-30.02,44.47c-1.12,43.63,29.6,45.87,30.02,45.87h41.24v-18.66h-41.24
		c-6.59-1.54-11.78-9.4-10.94-18.1h48.68v-17.81h-48.68c-0.56-6.17,3.79-16.83,10.94-17.96c13.61,0,23.15,0,41.24,0v-17.81
		L406.51,336.24L406.51,336.24z M21.46,336.24v16.97h44.89c10.52,0.7,10.94,13.61,10.8,19.64H33.81
		c-22.44,4.21-25.25,45.17-1.26,53.72h65.09v-61.72c-0.56-19.5-13.05-28.05-19.64-28.76H21.46V336.24z M207.18,336.24v90.34h19.5
		v-90.34H207.18z M116.29,336.24v90.34h19.92v-73.36h22.16c1.96,0.42,9.26,1.26,11.22,9.12v64.25h19.5v-64.67
		c-0.42-15.29-13.19-26.09-21.32-25.67H116.29z M41.66,388.84h35.63v20.06H42.5C35.21,403.71,35.21,395.29,41.66,388.84z"/>
</g>
</svg>
